<?xml version="1.0" encoding="UTF-8"?> <svg xmlns="http://www.w3.org/2000/svg" xmlns:xlink="http://www.w3.org/1999/xlink" width="70pt" height="70pt" viewBox="0 0 70 70"><g id="surface1"><path style=" stroke:none;fill-rule:evenodd;fill:rgb(95.294118%,43.921569%,12.941176%);fill-opacity:1;" d="M 35.140625 67.339844 C 52.851562 67.339844 67.339844 52.851562 67.339844 35.140625 C 67.339844 17.429688 52.851562 2.941406 35.140625 2.941406 C 17.429688 2.941406 2.941406 17.429688 2.941406 35.140625 C 2.941406 52.851562 17.429688 67.339844 35.140625 67.339844 Z M 35.140625 67.339844 "></path><path style=" stroke:none;fill-rule:evenodd;fill:rgb(7.45098%,8.235294%,9.411765%);fill-opacity:1;" d="M 65.378906 34.859375 L 65.238281 34.511719 L 65.238281 34.441406 L 64.960938 34.160156 L 64.679688 34.019531 L 64.609375 34.019531 L 64.398438 33.808594 L 64.328125 33.808594 L 64.050781 33.738281 L 63.628906 33.738281 L 63.351562 33.808594 L 63.277344 33.808594 L 63 34.019531 L 62.929688 34.089844 L 62.722656 34.300781 L 62.648438 34.371094 L 62.511719 34.722656 L 61.601562 34.722656 L 61.179688 34.578125 L 60.972656 34.511719 L 60.761719 34.441406 L 60.550781 34.300781 L 60.269531 34.230469 L 59.988281 34.089844 L 59.710938 33.949219 L 59.5 33.808594 L 58.449219 33.179688 L 58.171875 32.898438 L 57.820312 32.621094 L 57.398438 32.339844 L 56.980469 31.988281 L 56.558594 31.640625 L 56.140625 31.222656 L 56 31.078125 L 55.160156 30.238281 L 54.671875 29.679688 L 54.179688 29.121094 L 53.691406 28.558594 L 53.269531 27.929688 L 52.921875 27.300781 L 52.5 26.738281 L 52.011719 26.179688 L 51.519531 25.621094 L 51.027344 25.058594 L 50.539062 24.5 L 50.050781 24.011719 L 49.558594 23.589844 L 49 23.171875 L 48.511719 22.75 L 47.390625 22.050781 L 46.828125 21.769531 L 46.691406 21.699219 L 46.339844 21.558594 L 45.777344 21.351562 L 45.222656 21.140625 L 44.660156 21 L 44.101562 20.789062 L 43.539062 20.722656 L 42.980469 20.648438 L 42 20.648438 L 41.511719 20.722656 L 41.019531 20.859375 L 40.390625 21 L 39.898438 21.210938 L 39.480469 21.421875 L 38.988281 21.699219 L 38.570312 22.050781 L 38.148438 22.398438 L 38.011719 22.539062 L 36.75 22.539062 L 36.75 12.738281 L 37.378906 12.949219 L 39.410156 13.789062 L 37.378906 9.800781 L 35.277344 5.671875 L 33.179688 9.730469 L 31.148438 13.789062 L 33.179688 12.949219 L 33.808594 12.671875 L 33.808594 22.472656 L 32.410156 22.472656 L 32.269531 22.328125 L 31.429688 21.628906 L 31.011719 21.351562 L 30.589844 21.140625 L 29.890625 21 L 28.910156 20.722656 L 28.421875 20.648438 L 27.441406 20.648438 L 26.878906 20.722656 L 26.320312 20.789062 L 25.761719 20.929688 L 25.199219 21.070312 L 24.640625 21.277344 L 24.078125 21.488281 L 23.660156 21.699219 L 23.449219 21.769531 L 22.890625 22.050781 L 22.398438 22.398438 L 21.839844 22.75 L 21.277344 23.171875 L 20.789062 23.589844 L 20.300781 24.011719 L 19.320312 24.988281 L 18.828125 25.550781 L 17.851562 26.671875 L 17.359375 27.300781 L 16.941406 27.929688 L 16.519531 28.558594 L 16.027344 29.121094 L 15.050781 30.238281 L 14.140625 31.148438 L 13.722656 31.570312 L 13.300781 31.988281 L 12.878906 32.339844 L 12.527344 32.621094 L 12.109375 32.898438 L 11.761719 33.179688 L 11.410156 33.390625 L 11.128906 33.601562 L 10.777344 33.808594 L 10.222656 34.089844 L 9.941406 34.230469 L 9.730469 34.300781 L 9.449219 34.371094 L 9.027344 34.511719 L 8.820312 34.578125 L 8.609375 34.648438 L 7.699219 34.648438 L 7.558594 34.300781 L 7.628906 34.300781 L 7.421875 34.019531 L 7.351562 33.949219 L 7 33.878906 L 6.929688 33.878906 L 6.648438 33.808594 L 6.230469 33.808594 L 5.949219 33.878906 L 5.878906 33.878906 L 5.601562 34.019531 L 5.527344 34.019531 L 5.25 34.160156 L 5.25 34.230469 L 5.039062 34.441406 L 5.039062 34.511719 L 4.898438 34.789062 L 4.898438 35.277344 L 4.972656 35.628906 L 4.972656 35.699219 L 5.109375 36.050781 L 5.527344 36.539062 L 5.601562 36.609375 L 64.609375 36.609375 L 64.679688 36.539062 L 65.101562 36.050781 L 65.238281 35.699219 L 65.238281 35.628906 L 65.308594 35.277344 L 65.308594 35.210938 Z M 32.410156 34.722656 L 13.648438 34.722656 L 13.722656 34.648438 L 14 34.441406 L 14.210938 34.300781 L 14.277344 34.230469 L 14.839844 33.808594 L 15.121094 33.601562 L 15.679688 33.179688 L 15.960938 32.972656 L 16.238281 32.761719 L 16.519531 32.550781 L 17.078125 32.128906 L 17.359375 31.921875 L 17.921875 31.5 L 18.128906 31.289062 L 18.339844 31.078125 L 18.550781 30.871094 L 18.972656 30.308594 L 19.179688 30.027344 L 19.601562 29.472656 L 19.808594 29.191406 L 20.300781 28.558594 L 20.789062 28 L 21.769531 27.019531 L 22.75 26.179688 L 23.238281 25.828125 L 23.660156 25.550781 L 23.730469 25.480469 L 24.148438 25.199219 L 24.570312 24.988281 L 24.988281 24.777344 L 25.410156 24.640625 L 25.828125 24.5 L 26.179688 24.359375 L 26.527344 24.289062 L 26.878906 24.222656 L 27.230469 24.148438 L 28.140625 24.148438 L 28.421875 24.222656 L 28.699219 24.289062 L 28.910156 24.359375 L 29.191406 24.429688 L 29.398438 24.570312 L 29.609375 24.640625 L 29.820312 24.777344 L 30.027344 24.921875 L 30.171875 25.058594 L 30.449219 25.339844 L 30.730469 25.691406 L 30.800781 25.761719 L 33.671875 25.761719 L 33.671875 28.140625 L 33.039062 28.558594 L 32.339844 28.980469 L 32.339844 34.722656 Z M 37.238281 34.722656 L 32.410156 34.722656 L 33.039062 34.371094 L 35.140625 33.179688 L 37.238281 34.441406 L 37.800781 34.789062 L 37.238281 34.789062 Z M 56.070312 34.722656 L 37.941406 34.722656 L 37.941406 29.191406 L 37.308594 28.769531 L 36.75 28.351562 L 36.75 25.898438 L 39.480469 25.898438 L 39.550781 25.828125 L 39.828125 25.480469 L 39.972656 25.339844 L 40.25 25.058594 L 40.460938 24.921875 L 40.671875 24.777344 L 40.878906 24.710938 L 41.089844 24.570312 L 41.371094 24.5 L 41.578125 24.429688 L 42.140625 24.289062 L 43.050781 24.289062 L 43.398438 24.359375 L 44.101562 24.5 L 44.449219 24.640625 L 44.871094 24.777344 L 45.289062 24.921875 L 45.710938 25.128906 L 46.128906 25.339844 L 46.550781 25.621094 L 46.621094 25.691406 L 46.972656 25.972656 L 47.460938 26.320312 L 47.949219 26.738281 L 48.441406 27.160156 L 49.421875 28.140625 L 49.910156 28.699219 L 50.398438 29.328125 L 50.820312 29.890625 L 51.101562 30.101562 L 51.308594 30.378906 L 51.519531 30.660156 L 51.730469 30.871094 L 51.941406 31.078125 L 52.148438 31.289062 L 52.710938 31.710938 L 52.988281 31.921875 L 53.269531 32.128906 L 53.828125 32.550781 L 54.390625 32.972656 L 54.671875 33.179688 L 55.230469 33.601562 L 55.511719 33.808594 L 55.789062 34.019531 L 56.070312 34.230469 L 56.140625 34.300781 L 56.351562 34.441406 L 56.628906 34.648438 L 56.699219 34.722656 Z M 56.070312 34.722656 "></path><path style=" stroke:none;fill-rule:evenodd;fill:rgb(100%,100%,100%);fill-opacity:1;" d="M 48.648438 44.378906 C 48.230469 44.449219 47.949219 44.871094 47.878906 44.871094 L 46.550781 42.421875 C 46.480469 42.277344 46.550781 42.210938 46.898438 42.210938 L 60.691406 42.210938 L 61.671875 44.238281 C 61.671875 44.308594 61.671875 44.378906 61.601562 44.378906 L 60.058594 44.378906 L 60.058594 53.761719 L 59.710938 53.761719 L 57.050781 52.429688 C 56.980469 52.359375 56.839844 52.359375 56.839844 52.289062 C 56.699219 52.011719 57.609375 52.222656 57.609375 51.308594 L 57.609375 44.378906 L 55.648438 44.378906 L 55.648438 53.761719 L 55.300781 53.761719 L 52.640625 52.429688 C 52.570312 52.359375 52.429688 52.359375 52.429688 52.289062 C 52.289062 52.011719 53.199219 52.222656 53.199219 51.308594 L 53.199219 48.300781 L 50.609375 48.300781 C 50.820312 48.722656 51.027344 49.210938 50.820312 49.628906 C 50.191406 51.101562 47.390625 49.628906 46.828125 48.160156 C 46.058594 46.128906 47.878906 46.058594 49.351562 46.058594 L 53.128906 46.058594 L 53.128906 44.378906 Z M 48.648438 44.378906 "></path><path style=" stroke:none;fill-rule:evenodd;fill:rgb(100%,100%,100%);fill-opacity:1;" d="M 43.75 47.109375 L 41.371094 47.109375 C 41.230469 46.058594 40.527344 45.078125 39.828125 44.378906 L 43.679688 44.378906 Z M 38.710938 44.378906 C 39.128906 44.871094 41.578125 47.878906 37.449219 47.878906 C 37.101562 47.878906 37.101562 47.808594 37.027344 47.527344 C 36.75 46.410156 35.558594 45.921875 35 46.761719 C 34.859375 46.972656 34.859375 47.320312 35 47.601562 C 35.628906 49.488281 39.128906 52.710938 40.808594 54.25 L 41.859375 53.828125 C 41.578125 53.761719 38.5 51.171875 38.011719 50.261719 C 38.570312 50.328125 39.199219 50.328125 39.691406 50.191406 C 39.691406 50.191406 39.761719 50.191406 39.828125 50.121094 C 40.390625 49.910156 40.738281 49.628906 41.160156 49.277344 C 41.722656 50.328125 41.371094 49.980469 42.277344 49.628906 C 42.839844 49.421875 43.398438 49.421875 43.820312 49.421875 L 43.820312 51.378906 C 43.820312 52.289062 42.910156 52.078125 43.050781 52.359375 C 43.121094 52.429688 43.191406 52.5 43.261719 52.5 L 45.921875 53.828125 L 46.269531 53.828125 L 46.269531 44.449219 L 47.109375 44.449219 C 47.179688 44.449219 47.179688 44.378906 47.179688 44.308594 L 46.199219 42.277344 L 45.359375 42.277344 C 44.941406 41.648438 44.308594 41.019531 43.820312 40.460938 C 41.722656 38.222656 41.648438 38.148438 38.5 38.570312 C 37.871094 38.640625 37.519531 38.359375 37.101562 38.289062 C 36.890625 38.289062 36.679688 38.429688 36.820312 38.570312 L 38.640625 40.460938 C 39.128906 40.878906 39.410156 40.808594 40.109375 40.671875 C 41.160156 40.460938 42.351562 40.527344 43.191406 41.160156 C 43.472656 41.371094 44.238281 42.070312 44.238281 42.351562 L 35 42.351562 C 34.648438 42.351562 34.578125 42.421875 34.648438 42.558594 L 35.980469 45.011719 C 36.050781 45.011719 36.328125 44.589844 36.75 44.519531 Z M 38.710938 44.378906 "></path><path style=" stroke:none;fill-rule:evenodd;fill:rgb(100%,100%,100%);fill-opacity:1;" d="M 11.480469 40.949219 C 14.980469 41.648438 21.070312 37.871094 23.449219 42.210938 L 12.25 42.210938 Z M 25.128906 44.378906 L 26.109375 44.378906 C 26.179688 44.378906 26.179688 44.378906 26.179688 44.238281 L 25.199219 42.277344 L 24.777344 42.277344 C 23.800781 41.648438 22.609375 39.761719 21.351562 38.921875 C 21 38.710938 20.578125 38.5 20.230469 38.359375 C 20.019531 38.289062 19.601562 38.148438 19.390625 38.078125 C 17.359375 37.800781 16.171875 38.078125 14.140625 38.570312 C 13.019531 38.851562 11.828125 38.921875 10.640625 38.851562 C 10.5 38.851562 10.222656 38.851562 10.078125 38.777344 C 9.589844 38.640625 9.730469 38.640625 9.238281 38.777344 L 11.128906 42.210938 L 8.960938 42.210938 C 8.609375 42.210938 8.539062 42.277344 8.609375 42.421875 L 9.941406 44.871094 C 10.011719 44.871094 10.222656 44.589844 10.640625 44.519531 C 10.777344 44.519531 10.921875 44.449219 11.128906 44.449219 L 11.128906 51.378906 C 11.128906 52.222656 10.222656 52.078125 10.359375 52.359375 C 10.429688 52.429688 10.5 52.5 10.570312 52.5 L 13.160156 53.761719 L 13.511719 53.761719 L 13.511719 44.378906 L 16.171875 44.378906 L 16.171875 45.289062 C 15.75 45.289062 14.839844 45.5 14.351562 45.710938 C 14.210938 45.777344 14.277344 45.921875 14.351562 45.988281 L 15.398438 47.738281 C 15.472656 47.808594 15.472656 47.808594 15.539062 47.808594 C 15.75 47.671875 15.960938 47.527344 16.238281 47.460938 C 18.621094 46.550781 22.398438 48.230469 19.460938 49.699219 L 19.320312 49.699219 C 18.691406 49.980469 17.777344 50.121094 17.078125 49.910156 C 16.730469 49.839844 16.589844 49.839844 16.519531 49.558594 C 14.699219 46.480469 11.410156 49.769531 17.5 52.148438 C 17.988281 52.359375 19.601562 54.460938 19.949219 54.601562 L 21.070312 54.039062 C 20.511719 53.898438 19.179688 52.921875 18.761719 52.148438 C 19.878906 52.078125 22.960938 51.589844 21.628906 48.859375 C 20.929688 47.460938 20.160156 45.777344 18.480469 45.289062 L 18.480469 44.378906 L 22.75 44.378906 L 22.75 51.308594 C 22.75 52.222656 21.839844 52.011719 21.980469 52.289062 C 22.050781 52.359375 22.121094 52.429688 22.191406 52.429688 L 24.851562 53.761719 L 25.199219 53.761719 Z M 25.128906 44.378906 "></path><path style=" stroke:none;fill-rule:evenodd;fill:rgb(100%,100%,100%);fill-opacity:1;" d="M 27.160156 48.722656 C 26.390625 47.808594 29.960938 46.898438 31.5 47.527344 C 31.570312 47.527344 31.640625 47.601562 31.640625 47.671875 L 31.640625 48.089844 C 31.570312 48.441406 31.289062 48.859375 31.078125 49 C 30.101562 49.628906 28.070312 49.558594 27.160156 48.722656 Z M 34.089844 44.378906 L 34.929688 44.378906 C 35 44.378906 35 44.308594 35 44.238281 L 34.019531 42.210938 L 25.898438 42.210938 C 25.550781 42.210938 25.480469 42.277344 25.550781 42.421875 L 26.878906 44.871094 C 26.949219 44.871094 27.230469 44.449219 27.648438 44.378906 L 31.710938 44.378906 L 31.710938 46.410156 L 31.011719 45.359375 C 30.308594 44.800781 25.761719 45.148438 25.550781 46.761719 C 25.480469 47.109375 25.550781 47.460938 25.691406 47.808594 C 26.808594 50.261719 28.910156 52.359375 31.710938 51.238281 L 31.710938 51.308594 C 31.710938 52.222656 30.800781 52.011719 30.941406 52.289062 C 31.011719 52.359375 31.078125 52.429688 31.148438 52.429688 L 33.808594 53.761719 L 34.160156 53.761719 Z M 34.089844 44.378906 "></path></g></svg> 